<svg width="128" height="128" viewBox="0 0 128 128" fill="none" xmlns="http://www.w3.org/2000/svg">
<path fill-rule="evenodd" clip-rule="evenodd" d="M40 36H48V44H40V36ZM80 36H88V44H80V36ZM88 48H68V56H88V48ZM40 48H48V56H40V48ZM88 60H56V68H88V60ZM40 60H48V68H40V60ZM88 72H68V80H88V72ZM40 72H48V80H40V72ZM88 84H80V92H88V84ZM40 84H48V92H40V84Z" fill="url(#paint0_linear_65_990)"/>
<defs>
<linearGradient id="paint0_linear_65_990" x1="64" y1="36" x2="64" y2="92" gradientUnits="userSpaceOnUse">
<stop stop-color="#FFFF00"/>
<stop offset="1" stop-color="#FF8000"/>
</linearGradient>
</defs>
</svg>
